<mxfile host="app.diagrams.net" modified="2024-01-05T14:17:04.021Z" agent="Mozilla/5.0 (Windows NT 10.0; Win64; x64) AppleWebKit/537.36 (KHTML, like Gecko) Chrome/120.0.0.0 Safari/537.36" version="22.1.16" etag="hhmRwaw84PIw9LaYrid7" type="github">
  <diagram name="Page-1" id="XqbEgCHJAF2CjJZnuu2g">
    <mxGraphModel>
      <root>
        <mxCell id="0" />
        <mxCell id="1" parent="0" />
      </root>
    </mxGraphModel>
  </diagram>
</mxfile>
